inDegrees=no
num_controls=7
num_derivatives=13
num_iterations=167
num_multipliers=7
num_parameters=0
num_slacks=7
num_states=26
objective=5.103673
objective_accelerations=0.406324
objective_balance=0.106385
objective_effort=0.316739
objective_height=4.253679
objective_ligament=0.020546
solver_duration=1891.466849
status=Solve_Succeeded
success=true
DataType=double
version=3
OpenSimVersion=4.4-2022-07-23-0e9fedc
endheader
time	/jointset/ground_pelvis/pelvis_tilt/value	/jointset/ground_pelvis/pelvis_tx/value	/jointset/ground_pelvis/pelvis_ty/value	/jointset/hip_l/hip_flexion_l/value	/jointset/hip_l/hip_adduction_l/value	/jointset/hip_l/hip_rotation_l/value	/jointset/back/lumbar_extension/value	/jointset/patellofemoral_l/patellar_flexion_l/value	/jointset/knee_l/knee_flexion_l/value	/jointset/knee_l/knee_adduction_l/value	/jointset/knee_l/knee_rotation_l/value	/jointset/ankle_l/ankle_angle_l/value	/jointset/subtalar_l/subtalar_angle_l/value	/jointset/ground_pelvis/pelvis_tilt/speed	/jointset/ground_pelvis/pelvis_tx/speed	/jointset/ground_pelvis/pelvis_ty/speed	/jointset/hip_l/hip_flexion_l/speed	/jointset/hip_l/hip_adduction_l/speed	/jointset/hip_l/hip_rotation_l/speed	/jointset/back/lumbar_extension/speed	/jointset/patellofemoral_l/patellar_flexion_l/speed	/jointset/knee_l/knee_flexion_l/speed	/jointset/knee_l/knee_adduction_l/speed	/jointset/knee_l/knee_rotation_l/speed	/jointset/ankle_l/ankle_angle_l/speed	/jointset/subtalar_l/subtalar_angle_l/speed	/forceset/tau_hip_flexion_l	/forceset/tau_hip_adduction_l	/forceset/tau_hip_rotation_l	/forceset/tau_knee_flexion_l	/forceset/tau_ankle_angle_l	/forceset/tau_subtalar_angle_l	/forceset/tau_lumbar_extension	lambda_cid13_p0	lambda_cid13_p1	lambda_cid13_p2	lambda_cid13_p3	lambda_cid13_p4	lambda_cid13_p5	lambda_cid14_p0	/jointset/ground_pelvis/pelvis_tilt/accel	/jointset/ground_pelvis/pelvis_tx/accel	/jointset/ground_pelvis/pelvis_ty/accel	/jointset/hip_l/hip_flexion_l/accel	/jointset/hip_l/hip_adduction_l/accel	/jointset/hip_l/hip_rotation_l/accel	/jointset/back/lumbar_extension/accel	/jointset/patellofemoral_l/patellar_flexion_l/accel	/jointset/knee_l/knee_flexion_l/accel	/jointset/knee_l/knee_adduction_l/accel	/jointset/knee_l/knee_rotation_l/accel	/jointset/ankle_l/ankle_angle_l/accel	/jointset/subtalar_l/subtalar_angle_l/accel	gamma_cid13_p0	gamma_cid13_p1	gamma_cid13_p2	gamma_cid13_p3	gamma_cid13_p4	gamma_cid13_p5	gamma_cid14_p0
1.5	-0.3086346429397689	0.005413370968774717	0.8097317117158955	0.9712925582469036	-0.3059238683099667	-0.05735969536138134	-0.3153975724555648	0.6370609855477652	0.6370609855477759	-0.1739134876426539	0.1745326954359737	0.1450743146673377	-0.0221755880562414	0.363037801773419	0.1048517227075957	0.3243366053573785	-1.566921201637098	0.03110341426395282	-0.5736703741590637	0.5848523822054971	-1.615568418651531	-1.615568418651509	0.003318169743924963	-1.386571949583788e-05	-0.5132841941360138	-0.0535000786195946	-0.1751819854737994	0.03283287204168843	-0.02183171407681879	-0.2032034956173217	0.04269611588922353	0.04363673598701801	0.1774917618280128	-24.70866448465847	-18.8777462174677	7.464724841601692	5.029433613323242	-612.8513071776022	-61.15120960403485	-31.2057150396388	0.309633390185348	0.2746352494676629	-0.2601965865142328	-0.9506830791321194	0.4867821240684594	-0.3593702658371097	1.201303352750441	-0.9704577433421424	-0.9704577433421424	0.003496587519519433	-0.02870560051119558	-0.3131890345347764	0.4670403029828468	7.272212921472326e-08	1.129787544962735e-06	-4.283499315726453e-07	9.340274615494952e-08	1.171382769611413e-07	5.95685116935975e-07	1.467073228255596e-07
1.51	-0.3049890044209773	0.006475509769561352	0.8129614420697444	0.9555775604792531	-0.3055890376998961	-0.06311444852763526	-0.3094900228560221	0.6208589792115894	0.6208589792115893	-0.1738811061624753	0.1745325162289214	0.1399263384170064	-0.02268789913892329	0.3660447371155519	0.1075608203373281	0.3215477989931532	-1.575855687797448	0.0358771378364455	-0.5771950414181883	0.5965739755309372	-1.624603172314661	-1.624603172314661	0.003154113634675241	-2.677719815818497e-05	-0.5162331758418726	-0.04894560731122014	-0.1697835715585845	0.03161196585447797	-0.02175790452846053	-0.2019152250131379	0.04591897919301132	0.04286563126049614	0.1730073777869197	-23.5661989799351	-18.81186854464406	7.533008658436978	4.678318402839563	-610.1350181728976	-61.40224914895771	-32.06277392755652	0.2894579060989667	0.2667858825219635	-0.2974483751198072	-0.8314215087578926	0.474770798799255	-0.3360726939378317	1.145052996627007	-0.8355633675302266	-0.8355633675333896	-0.02679426385864399	0.011796056035313	-0.2740513299784793	0.4519859545019839	6.862939250143042e-08	1.197723830827415e-06	-4.266805601802899e-07	1.024747813291616e-07	1.198492067290104e-07	6.23350614295996e-07	1.509598285428395e-07
1.52	-0.3013146496887901	0.007564287319204508	0.8161614392172026	0.9397798998251438	-0.3052060491891086	-0.06890185991407889	-0.3034677641883881	0.6045735095008358	0.604573509500825	-0.1738504527541298	0.1745320839026049	0.134751212631343	-0.02315419842657399	0.368781044452554	0.1101794724788996	0.3183899640791959	-1.583453778928654	0.04073499440732237	-0.5802020181968226	0.6077941958238262	-1.632261093567063	-1.632261093567084	0.002972555376968205	-6.448957365685903e-05	-0.5187141012024138	-0.04429771961335638	-0.1643851576433783	0.03039105966726358	-0.02168409498009041	-0.2006269544089583	0.04914184249679758	0.04209452653396954	0.1685229937458199	-22.43101677460906	-18.74713437935327	7.604238175896657	4.333674301720276	-607.5423676148948	-61.70209289157501	-32.89685641035648	0.2555077891592159	0.2565461518354875	-0.3340022964606617	-0.6834040733032699	0.5036087237452851	-0.2558321697390806	1.101028746240271	-0.6950912611967258	-0.6950912611967256	-3.842171946942356e-06	-0.03366577987842753	-0.219577765471311	0.4857235808806961	6.370096421029336e-08	1.258704248290925e-06	-4.234392295641201e-07	1.109517185458875e-07	1.218617511620643e-07	6.471074592872133e-07	1.543628201602732e-07
1.53	-0.2976142938635503	0.008678767624461662	0.8193280495770792	0.9239129770216435	-0.304774138707499	-0.07471686294276079	-0.2973359222371216	0.5882184171324688	0.5882184171324633	-0.1738217227856535	0.174531280561993	0.1295536288132945	-0.02357362807025481	0.3712426017186801	0.1126977918578989	0.3148740250934524	-1.589700027927984	0.04565537777013373	-0.5827091493366037	0.6184800659577326	-1.638519921789403	-1.638519921789406	0.002767683736049285	-0.0001007815959714449	-0.5207227669405917	-0.0395780197210178	-0.1588789164028978	0.02899193762063011	-0.02165043138651974	-0.1994162211232411	0.05250895757945872	0.04125171588998961	0.1639431198787938	-21.25209255482929	-18.65858070657382	7.671285215413297	3.978057837786323	-604.9556501861819	-61.98813199277851	-33.70432687173953	0.2343593413251316	0.2466799229492394	-0.3690773575474507	-0.5606136696180842	0.4874165901784308	-0.2345719973833335	1.038246876206955	-0.5556914955652349	-0.5556914955625669	-0.03141101793533395	0.01080157099568678	-0.1795072314182149	0.4664594623460262	5.788461361769682e-08	1.312294055578193e-06	-4.185276922726474e-07	1.187963641827844e-07	1.231322611768773e-07	6.667113611365766e-07	1.568632030466204e-07
1.54	-0.2938907465364523	0.009817872141912232	0.8224577630155151	0.9079905160568748	-0.3042927917027353	-0.08055422096509834	-0.2911000454386681	0.5718078539033167	0.5718078539033159	-0.1737951779721628	0.1745299967980342	0.1243383590871787	-0.02394558746122512	0.3734193448242397	0.1151043149175828	0.3110105797910557	-1.594561411182125	0.05062229903812058	-0.584673016927814	0.6286011652612843	-1.643355265724248	-1.643355265724233	0.002535524379791429	-0.0001605742421388025	-0.5222512828158573	-0.03480366907125585	-0.1533726751624267	0.02759281557399332	-0.02161676779295075	-0.1982054878375259	0.05587607266211888	0.04040890524600584	0.15936324601176	-20.08085561128038	-18.57080036757898	7.740876911496152	3.630676287073704	-602.4987898814248	-62.32352469680321	-34.48161327737176	0.1985449570459446	0.2341868879724016	-0.4035035597913098	-0.4064309242655101	0.5129163047803716	-0.1471794600249481	0.9880745801692935	-0.4103944036977121	-0.4103944036977126	-0.005461385239738274	-0.03836590464894817	-0.1235477928888674	0.49665373236536	5.184224542415574e-08	1.363468824359038e-06	-4.139536135872916e-07	1.261814907951959e-07	1.24627028246375e-07	6.849446919220151e-07	1.591700428057983e-07
1.55	-0.290146872763146	0.01098045734475139	0.8255471470887833	0.8920264015986984	-0.3037616135962197	-0.08640862410401362	-0.2847658978282636	0.5553561293445963	0.5553561293445948	-0.1737710906723855	0.1745281280327254	0.1191102261438881	-0.02426959153192195	0.3753046649059673	0.1173909753471642	0.3068122331090162	-1.598022297829865	0.05561570503384339	-0.5861161520531833	0.6381234221472193	-1.64674348221781	-1.646743482217812	0.002277138625281784	-0.000216188991362668	-0.5232922183915162	-0.02999225098245453	-0.1477335759057319	0.02604134947830304	-0.02163839403920169	-0.1971481386485023	0.05951680694657896	0.03943572552103052	0.1546771937240597	-18.82704626919708	-18.43903409815632	7.801371477530554	3.237520168175363	-600.0711841344066	-62.60772277842888	-35.22513009248531	0.1759194055332459	0.2226704441714708	-0.4360750146168819	-0.2800335473602797	0.4928162224662466	-0.1289908050465391	0.9185610419452954	-0.2661431841911287	-0.2661431841935571	-0.03655065537563376	0.01049547311260444	-0.08188431449968946	0.473941712759968	4.55394656469177e-08	1.411861048773787e-06	-4.097683459046356e-07	1.330371715750481e-07	1.263801784440964e-07	7.015988864816272e-07	1.612538872228027e-07
1.56	-0.2863856670146631	0.01216526211663046	0.8285929327367898	0.8760348550715771	-0.3031804487346471	-0.09227468064743417	-0.2783396756891721	0.5388779010385395	0.5388779010385369	-0.1737496919271158	0.1745256340665553	0.1138741802699216	-0.02454537024860627	0.3768857398595787	0.1195482287255647	0.3022908947387125	-1.600047824970883	0.06061965004948768	-0.5870036978286978	0.6470160709987418	-1.648656015191599	-1.648656015191617	0.001997813478009562	-0.00028561441371784	-0.523833868950987	-0.0251585982687553	-0.1420944766490475	0.02448988338260835	-0.02166002028544676	-0.1960907894594823	0.06315754123103748	0.03846254579605005	0.1499911414363513	-17.58123907313398	-18.30778488795759	7.864140082169538	2.854097407813508	-597.7779332084226	-62.94171225745919	-35.93142491628915	0.137695931422699	0.2083054777361957	-0.4681018974441771	-0.1193590229207863	0.5150241087646601	-0.03606159005397037	0.8621529732867845	-0.1152576997431542	-0.1152576997431542	-0.009649263792256902	-0.0411280392751873	-0.02369078965127461	0.5011006573449356	4.189116729852206e-08	1.448630216549129e-06	-4.141418357241077e-07	1.364471003083807e-07	1.321942049514243e-07	7.159300065393025e-07	1.637463183822694e-07
